<svg version="1" xmlns="http://www.w3.org/2000/svg" width="1066.667" height="1066.667" viewBox="0 0 800.000000 800.000000"><path d="M590.5 138.7c-9.9 1-28 4.6-39.2 7.9-38.6 11.1-78 32-132.5 70-9.8 6.8-18.2 12.4-18.7 12.4-.4 0-5.2-3.2-10.6-7.1-42.9-31.2-92.4-54.9-132.3-63.3-27.9-5.9-61.5-5.6-91.7.9-54.3 11.7-92.9 42.3-118.5 93.7-14.4 29.1-21 57.9-21 92.4 0 32.2 5.3 62.7 17.2 99.4 11 33.8 28.7 75 41.8 97 4.8 8 14.6 24.5 21.9 36.8 19.5 32.7 28.1 44.4 50.5 68.5 12.2 13.2 16 15.7 23.6 15.7 6.8 0 10.7-1.8 17.7-8.2 10.9-10 15.9-11.4 102.8-27.3C408.2 607.9 437 602.2 497 588.9c66.7-14.8 93.7-23 124.8-37.9 18.9-9.1 28.7-15.1 47.2-29.1 61.6-46.5 91.3-94.3 102.2-164.4 1.9-12.1 2.2-18.2 2.2-44.5 0-27.5-.2-31.8-2.3-44-6.8-39.8-21-70.3-41.7-90-19-17.9-46.2-31.7-75.5-38.1-9.1-2-13.5-2.3-34.9-2.5-13.5-.1-26.3 0-28.5.3zm48.4 66.8c7.2 2.5 12.7 7 15.5 12.7 4.7 9.4 2.6 14.8-7.6 19.6-6.3 3-64.4 27.1-66.3 27.5-1.5.3-1.8-9.1-.5-15 1.6-7.5 5.1-11.6 23.2-27.3 21.5-18.6 26.2-20.9 35.7-17.5zm-314.6 49.7c3.5 1.8 5.1 5.8 5.1 12.7-.2 12.5-4.9 23.5-12.4 29-5.8 4.2-13.7 5.8-40.5 8.1-13.2 1.2-24.3 2.4-24.7 2.8-.4.4-6.8 41.2-14.2 90.7-7.5 49.5-14.1 92.5-14.7 95.5-3.3 16.4-11.9 25.6-27.9 29.4-6.7 1.6-38.1 4.8-38.9 4-.5-.4 7.3-53 24.9-168.4 3.8-24.5 6.5-44.8 6.1-45.3-.4-.4-13 .3-27.9 1.6-37.7 3.4-40.3 2.7-41-10-.4-6.8 3.1-33.1 4.6-34.4.4-.4 42.3-4.4 93.2-8.8 50.9-4.5 93.6-8.3 95-8.5 3.4-.4 11.1.5 13.3 1.6zm350.1 11.2c5.4 2.3 7.6 5.9 7.6 12.9 0 6.5-21.1 148.1-23.5 158.2-2.6 10.3-8.8 21.7-16 29-14.6 14.7-39.8 26.9-67 32.2-12.6 2.4-38.2 2.4-48.4 0-10.8-2.6-22-7.3-27.7-11.6-9.2-6.9-14.4-19.9-12.8-32.4 1.1-8.8 26.4-176.1 26.7-176.4.9-.8 34.8-3.3 38.2-2.7 7.9 1.3 11.6 4.5 12.9 11.3.4 2.1-3.5 30.4-10.5 76.5-10.3 67.7-11 73.5-9.9 78.4 2.1 9.6 9.1 14.9 20.8 15.9 20.8 1.7 37.3-8.8 41.1-25.9.5-2.3 6.2-39 12.5-81.3 6.4-42.4 12-78.4 12.4-80l.8-3 11.4-1.1c16.9-1.6 27.5-1.6 31.4 0zm-202.9 14.3c4.8 2.5 10.6 8.5 13 13.3 2.7 5.2 3.1 15.6 1 22.1-2.6 7.7-10.3 15.2-18 17.5-13.9 4-27.2-1.4-34-13.8-2.6-4.6-3-6.3-3-13.3 0-6.6.4-8.9 2.5-12.9 3-5.8 9.6-11.9 15.3-14 5.9-2.2 17.9-1.6 23.2 1.1zM405.9 329c-1 6.6-2.8 14.3-4 17.1-2.5 5.7-8.1 11-13.6 12.7-2.1.7-16.4 2.4-31.8 3.7-15.4 1.4-28.9 2.8-30.1 3-1.8.4-2.3 2.6-5.6 24.7-2.1 13.4-3.4 24.6-3 25 .4.4 14.9-.6 32.2-2.3 17.3-1.6 32.7-2.9 34.1-2.9h2.6l-1.9 12.1c-2.2 14.3-4.6 20.6-9.9 25.4-5.4 4.8-10.8 6-38.9 8.5-13.5 1.2-24.8 2.5-25.2 2.8-1.3 1.4-8 49.5-6.9 50.1.5.4 17.5-.8 37.7-2.6 20.2-1.8 37-3.1 37.2-2.8 1.1 1-3 24-5 28.7-2.3 5.3-7.3 10.3-12.5 12.5-3.4 1.4-117.8 12.1-118.8 11.1-.4-.4 33-223.8 33.9-226.4.3-.6 3.7-1.4 7.8-1.7 26.2-2.3 80.3-7.1 96.3-8.7 10.5-1 20.8-1.8 23.1-1.9l4.1-.1-1.8 12zm72.6 19.2c-.3 1.8-5.9 38.6-12.5 81.8-11.5 75.2-12.1 78.8-15.3 85-5.5 11-13.8 15.1-34.1 17-6.1.5-13 1.2-15.3 1.5-3.8.4-4.3.2-4.3-1.5 0-4.4 24-158.9 25.4-163.5 2.9-9.5 9.9-16.4 19.4-19.1 5.6-1.7 24.1-4.1 32.5-4.3l4.8-.1-.6 3.2z"/></svg>