<?xml version="1.0" standalone="no"?>
<!DOCTYPE svg PUBLIC "-//W3C//DTD SVG 20010904//EN"
 "http://www.w3.org/TR/2001/REC-SVG-20010904/DTD/svg10.dtd">
<svg version="1.0" xmlns="http://www.w3.org/2000/svg"
 width="174.000000pt" height="174.000000pt" viewBox="0 0 174.000000 174.000000"
 preserveAspectRatio="xMidYMid meet">
<metadata>
Created by potrace 1.11, written by Peter Selinger 2001-2013
</metadata>
<g transform="translate(0.000000,174.000000) scale(0.100000,-0.100000)"
fill="#000000" stroke="none">
<path d="M658 1717 c-57 -38 -80 -109 -54 -167 4 -11 -5 -25 -32 -45 -21 -15
-49 -43 -62 -62 -14 -18 -54 -55 -90 -82 -347 -261 -407 -746 -133 -1086 107
-132 281 -236 442 -262 81 -14 261 -8 330 10 129 35 247 103 342 197 70 70
100 111 144 199 82 164 101 369 49 548 -35 124 -123 263 -216 345 -36 32 -54
56 -56 74 -3 38 -39 92 -73 109 -40 21 -98 25 -137 9 -32 -13 -35 -12 -64 15
-17 16 -48 34 -69 41 -38 13 -38 13 -26 44 18 43 11 71 -25 101 -25 21 -41 26
-82 25 -28 0 -74 1 -103 4 -42 4 -57 1 -85 -17z"/>
</g>
</svg>
