<svg width="100" height="72"  viewBox="0 0 100 72" fill="none" xmlns="http://www.w3.org/2000/svg">
  <defs>
    <linearGradient id="grad1" x1="0%" y1="100%" x2="0%" y2="0%">
      <stop
         id="stop1443"
         offset="0"
         style="stop-color:#2262a8;stop-opacity:1" />
      <stop
         id="stop1445"
         offset="1"
         style="stop-color:#00a6da;stop-opacity:0.30000001" />
    </linearGradient>
  </defs>
  <g transform="matrix(0.07923066,0,0,0.07923066,42.400997,34.604403)">
    <path d="m 424.59766,-436.74609 c -129.96594,0.93322 -238.32149,72.6783 -328.113285,135.625 -76.126287,-54.15688 -169.624503,-101.25267 -260.955075,-108.6875 a 40.004,40.004 0 0 0 -1.04102,-0.0723 c -95.65056,-5.28015 -195.13598,15.07603 -269.71875,88.59375 a 40.004,40.004 0 0 0 -0.77148,0.7832 c -64.6261,67.30716 -97.7484,155.60749 -98.9668,242.000004 -3.54066,117.780865 43.01336,227.122446 84.31055,316.203126 a 40.004,40.004 0 0 0 2.49414,4.57226 c 37.50955,59.24373 69.24242,130.41034 126.33398,187.38868 a 40.004,40.004 0 0 0 0.26953,0.26757 c 0.92435,0.90509 7.55389,9.90854 17.95508,20.13477 10.40119,10.22623 28.81237,23.67578 53.21094,23.67578 32.42848,0 57.43678,-23.88847 60.02539,-27.73242 1.71276,-0.80413 5.09948,-2.54473 8.32812,-3.64453 5.05159,-1.72076 8.67083,-2.60523 9.01954,-2.69141 C -44.208139,413.6455 87.365494,393.3523 218.12695,364.10935 l 0.16016,-0.0352 c 106.1812,-23.28983 215.4901,-42.1898 308.9668,-108.4043 C 642.04847,174.35486 706.62054,77.139188 723.03906,-52.066406 a 40.004,40.004 0 0 0 0.0645,-0.541016 c 3.68497,-32.535877 3.88281,-57.028038 3.88281,-86.707028 a 40.004,40.004 0 0 0 -0.0332,-1.61524 c -2.95577,-73.08462 -21.24078,-147.8009 -70.20312,-206.90625 a 40.004,40.004 0 0 0 -1.5918,-1.80859 c -53.36208,-57.04278 -130.56463,-85.35982 -197.81445,-87.08008 a 40.004,40.004 0 0 0 -1.02148,-0.0137 h -25.92774 l 0.4082,0.002 c -2.07385,-0.0212 -4.14212,-0.0246 -6.20507,-0.01 z" fill="#ffffff" />
    <path d="m 683.3576,-57.109467 c 3.45807,-30.532471 3.6283,-52.679483 3.6283,-82.204723 -2.72864,-67.46837 -19.62369,-133.00938 -61.0394,-183.00474 -43.89651,-46.92431 -114.00382,-72.99611 -169.62519,-74.41891 h -25.92757 c -127.43671,-1.30197 -238.78422,77.65129 -334.37484,144.79372 -75.582328,-57.92469 -176.183567,-110.86963 -263.73546,-117.99686 -88.76426,-4.90001 -174.74965,13.38039 -239.43311,77.14016 -57.26884,59.64468 -86.84093,138.62797 -87.83623,215.206313 -3.27856,106.302248 39.82677,210.481477 80.61733,298.469327 39.45701,62.31959 70.67954,130.45768 120.79372,180.47247 10.88504,10.65827 22.75276,32.39055 43.18111,32.39055 20.42835,0 27.34489,-13.49291 34.75276,-19.31339 10.35591,-8.12598 33.6378,-13.75748 33.6378,-13.75748 C -51.580707,374.28284 80.143954,353.98716 209.55592,325.03861 316.66379,301.54038 419.95251,282.65818 504.13233,223.02915 613.01283,145.90331 668.17229,62.391371 683.3576,-57.109467 Z" fill="#22b9ec"/>
    <path
      fill="url(#grad1)"
      d="m 89.19041,257.26501 -23.01731,2.04095 c -5.6315,5.21574 -12.09449,9.29764 -19.46457,12.32126 -7.02992,2.87244 -15.04252,4.68661 -24.0378,5.48031 l -177.25986,15.76063 -34.31812,3.06142 5.17796,-34.01575 6.87874,-45.39213 c -1.47402,1.51181 -3.02362,2.98583 -4.61103,4.38425 -7.67244,6.65197 -16.70551,11.86772 -27.1748,15.68504 -9.41103,3.43937 -20.10709,5.66929 -32.0504,6.72756 l -50.19214,4.45985 -34.31812,3.06141 5.14016,-34.01575 46.29923,-305.272481 -43.3134,3.85512 c -23.05512,2.04095 -39.45827,-3.06141 -50.64568,-15.911809 -10.84724,-12.43465 -13.79527,-29.02676 -10.54488,-50.60786 l 6.65197,-43.95591 3.1748,-21.01418 21.31654,-1.88976 299.41422,-26.64567 c 3.74173,-0.34016 7.29449,-0.49134 10.58268,-0.45355 4.11968,0.0378 7.63465,0.30236 10.50709,0.71811 5.36693,0.7937 10.28031,2.22992 14.74016,4.27087 5.5181098,2.49449 10.2047198,5.85827 14.0976398,10.01575 3.81732,4.11968 6.80315,9.07086 8.9574802,14.77795 1.70078,4.53543 2.79685,9.6 3.28819,15.11811 0.34015,3.62835 0.41574,7.2567 0.22677,10.88504 -0.18898,4.0063 -0.52914,7.74804 -1.05827,11.18741 -1.47402,9.86456 -4.1196902,18.85984 -7.8614202,27.06142 -2.64567,5.78267 -5.85827004,11.07401 -9.63779,15.79842 l 113.0456702,-10.05354 5.32913,-0.49134 c 2.4189,-12.7748 8.08819,-24.49134 16.17638,-34.20473 12.32126,-14.74016 30.31182,-24.75591 51.09922,-26.60788 19.54016,-1.73858 37.94646,4.11969 52.30867,15.15591 3.89291,2.98583 7.52126,6.34961 10.77165,10.05355 l 0.26457,-1.663 3.1748,-21.01417 21.31654,-1.88977 48.07561,-4.27086 c 11.71653,-1.05827 22.03465,-0.30236 30.95433,2.22992 0,-14.96693 2.49449,-25.77638 7.93701,-35.94331 5.48032,-10.16693 12.62362,-17.34803 22.63937,-26.3811 6.463,-5.82048 13.07717,-11.71654 18.89764,-16.78111 5.44252,-4.7622 11.64095,-10.01575 17.95276,-15.30709 10.69607,-8.95748 20.48502,-15.68504 33.03312,-18.82205 13.9086,-3.47716 28.1196,-1.85197 45.1275,7.02992 14.4,7.52127 25.9654,19.69135 31.937,32.99528 2.9859,6.65197 4.6866,13.71969 4.8378,20.97638 0.1512,7.89922 -1.5118,15.72284 -5.4047,23.13072 -1.852,3.51496 -4.1197,6.87874 -6.9165,9.97795 2.6456,0.11339 5.1779,0.37795 7.559,0.71811 12.6236,1.92756 22.8662,6.80315 30.7654,14.70236 8.3149,8.31496 13.0771,18.93544 14.211,31.86142 0.5291,5.89607 0.3024,11.98111 -0.6425,18.21733 l -34.9229,230.40001 c -1.5496,10.28032 -4.1196,20.0315 -7.6346,29.29134 -3.515,9.18425 -8.126,17.95276 -13.8331,26.4189 -5.6693,8.35276 -12.2079,15.98741 -19.6157,22.86615 -7.2189,6.72756 -15.4961,12.96378 -24.7559,18.70866 l -0.1134,0.0756 -0.076,0.0378 c -17.80824,11.85616 -35.68916,19.14429 -55.10554,25.66299 -9.71338,3.2126 -19.46456,5.85827 -29.29134,7.86142 -9.75118,2.00315 -19.84252,3.47717 -30.27402,4.42205 -4.27086,0.37795 -8.05039,0.64252 -11.37638,0.7937 -3.36378,0.15118 -7.02992,0.22677 -11.07401,0.22677 -12.17008,0 -24.34016,-0.90709 -36.0189,-2.91024 -11.26301,-1.92756 -22.48821,-4.95118 -33.44884,-9.18425 -9.03307,-3.51496 -17.80157,-7.89921 -25.5874,-13.41732 -7.55906,-5.32914 -14.4,-11.79213 -20.0315,-19.57796 -0.56693,-0.7937 -1.13386,-1.5874 -1.66299,-2.3811 l -4.0441,26.30551 c -1.47401,9.71339 -4.27086,18.67087 -8.35275,26.87245 l 0.0756,0.0378 c -4.30867,8.61733 -10.05355,16.0252 -17.23465,22.26142 -6.99213,6.04725 -15.2315,10.80945 -24.68032,14.24882 -8.46614,3.06142 -18.02835,5.10237 -28.72441,6.04725 l -43.61576,3.89291 z"
    />
    <path d="m 20.425298,251.64192 c 12.13229,-1.09606 21.58111,-4.91338 28.27087,-11.52756 6.84095,-6.72756 11.2252,-16.62992 13.19055,-29.66929 l 5.10237,-33.71339 -109.7575,9.75118 -11.60315,1.02047 1.73859,-11.52756 8.61732,-56.91969 1.09606,-7.14331 7.14331,-0.64252 67.38899,-6.00944 c 12.09448,-1.05827 21.50551,-4.95119 28.23307,-11.64095 6.87874,-6.80315 11.30079,-16.78111 13.30394,-29.933864 l 5.14016,-34.01575 -98.64568,8.7685 -11.60316,1.02047 1.73859,-11.52756 8.35275,-55.14331 1.09607,-7.14331 7.14331,-0.64252 78.50079,-6.99213 c 12.13229,-1.09606 21.58111,-4.91338 28.27087,-11.52756 6.84095,-6.72756 11.225202,-16.66771 13.228352,-29.74488 l 5.10236,-33.713386 -212.93861,18.935426 -55.40788,365.366984 177.259868,-15.76064 z M 192.65839,-82.317174 c -26.45669,2.34331 -49.85197,-17.19685 -52.19528,-43.653526 -2.34331,-26.4567 17.19685,-49.85198 43.65355,-52.19528 26.4567,-2.34331 49.85197,17.19685 52.19528,43.65354 2.34331,26.45669 -17.19685,49.851956 -43.65355,52.195266 z M 376.41904,-189.69354 c 32.61733,-14.81576 77.06458,-31.10552 111.3449,-46.4882 27.2126,-12.20788 16.62992,-40.78111 -6.04725,-52.61103 -20.82519,-10.88504 -32.50394,-4.49764 -48.22677,8.61732 -10.96063,9.14646 -25.24725,21.6567 -36.13229,31.44567 -15.79843,14.24883 -22.11024,21.73229 -21.6567,44.56064 0.0756,4.30866 0.37796,9.03307 0.68032,14.4378 z m -556.64888,353.8016 42.78426,-282.29293 1.24724,-8.23938 73.133868,-6.50078 c 14.74016,-1.32284 26.15433,-5.82048 34.20473,-13.53071 8.12598,-7.78583 13.34173,-19.20001 15.60945,-34.24253 0.86929,-5.85827 1.13386,-11.11181 0.71811,-15.68504 -0.52914,-6.08504 -2.26772,-10.65827 -5.10236,-13.75748 -2.83465,-3.06142 -7.18111,-5.02678 -13.03938,-5.93386 -4.11968,-0.60473 -9.03307,-0.68032 -14.74016,-0.18898 l -299.414208,26.64568 -6.65197,43.95591 c -2.15433,14.09764 -0.71811,23.88661 4.23307,29.36691 v -0.0378 c 4.87559,5.32913 14.13544,7.40787 27.77953,6.19842 l 64.25199,-5.70708 13.37952,-1.20945 -2.00315,13.30394 -49.43623,326.02208 50.19214,-4.45984 c 18.93544,-1.70079 33.56221,-6.99213 43.88032,-15.94961 10.09134,-8.7685 16.36536,-21.35433 18.85985,-37.75748 z m 348.85044,49.92756 c 8.7307,-7.59685 14.21102,-18.48189 16.36535,-32.73071 l 39.00473,-254.211054 -43.50237,3.85511 c -16.44094,1.47402 -29.14016,6.08504 -38.09764,13.83308 -8.7685,7.59685 -14.24882,18.55748 -16.40315,32.8063 L 86.982788,231.68602 130.59854,227.7931 c 16.40316,-1.47401 29.10237,-6.08504 38.02206,-13.83307 z m 323.22523,-103.2945 c 8.8063,-12.96378 14.47559,-27.85512 17.00788,-44.560634 l 34.92283,-230.400016 c 3.85512,-25.32283 -8.8063,-36.69922 -37.75748,-34.12914 l -47.96221,4.27087 -38.85355,256.289776 c -2.00315,13.152764 -7.44567,23.433084 -16.32756,30.840954 -8.61732,7.1811 -20.22047,11.45197 -34.73386,12.73701 -15.2315,1.36063 -26.57008,-1.24724 -34.01575,-7.82362 -7.97481,-7.02993 -10.88504,-17.6126 -8.73071,-31.710244 l 32.42835,-213.921266 c 3.85512,-25.32284 -8.8063,-36.69922 -37.75749,-34.12914 l -48.07559,4.27087 -41.34804,272.80631 c -2.49449,16.36536 -1.28504,30.16063 3.55276,41.34804 4.68661,10.84724 12.96378,19.46457 24.86929,25.88976 v 0 c 12.8504,6.91654 27.06142,11.71654 42.59528,14.4378 v 0 c 15.60945,2.72126 32.65512,3.2504 51.06142,1.6252 18.4819,-1.66299 36.28347,-5.32914 53.40473,-10.99843 17.15906,-5.66929 33.6756,-13.41732 49.54962,-23.1685 v 0.0378 c 15.26929,-9.44882 27.36378,-20.67402 36.20788,-33.71339 z" fill="#25548f" />
    <path d="m 463.02794,-297.30369 c -11.66899,-0.18577 -20.98083,6.12924 -31.42578,14.84179 -11.00923,9.18696 -25.30613,21.70757 -36.2168,31.51954 a 3.0003,3.0003 0 0 0 -0.004,0.002 c -7.94563,7.16628 -13.76623,12.81763 -17.55664,19.87109 -3.79007,7.05287 -5.32187,15.27918 -5.08985,26.97461 0.0776,4.40903 0.38207,9.15945 0.6836,14.54883 a 3.0003,3.0003 0 0 0 0.92773,2.00586 l 0.0391,0.0371 a 3.0003,3.0003 0 0 0 3.3086,0.55859 c 32.43685,-14.73375 76.88792,-31.02712 111.33008,-46.48242 14.5361,-6.52119 19.71216,-18.48173 17.39648,-29.78711 -2.3156,-11.30479 -11.23521,-21.936 -23.28125,-28.2207 h -0.002 c -7.44522,-3.89135 -13.99781,-5.77182 -20.10938,-5.86913 z m -502.36523,77.74219 c -1.99623,0.0278 -4.09579,0.13634 -6.30078,0.32617 a 3.0003,3.0003 0 0 0 -0.01,0.002 l -299.41383,26.64644 a 3.0003,3.0003 0 0 0 -2.69922,2.53906 l -6.65234,43.95117 c -2.21577,14.49963 -0.97426,25.24545 4.97461,31.83007 a 3.0003,3.0003 0 0 0 0.35156,0.33203 c 5.94209,6.15363 16.11764,8.02994 29.91797,6.80664 a 3.0003,3.0003 0 0 0 0.002,0 l 64.24999,-5.70703 a 3.0003,3.0003 0 0 0 0.006,-0.002 l 9.57227,-0.86523 -1.4336,9.52539 -49.43554,326.01955 a 3.0003,3.0003 0 0 0 3.23242,3.4394 l 50.1914,-4.4609 a 3.0003,3.0003 0 0 0 0.002,0 c 19.35047,-1.7381 34.64369,-7.1777 45.58007,-16.6719 10.52806,-9.1479 17.07052,-22.2304 19.72852,-38.76364 a 3.0003,3.0003 0 0 0 0.24219,-0.8086 l 42.78515,-282.29298 0.89649,-5.9082 70.78515,-6.29297 a 3.0003,3.0003 0 0 0 0.002,-0.002 c 15.20559,-1.36461 27.35904,-6.06252 36.01172,-14.3496 8.718269,-8.35336 14.161599,-20.46311 16.498039,-35.94922 l 0.002,-0.002 c 0.9364703,-6.04868 1.1849403,-11.53404 0.7421803,-16.41015 -0.5677603,-6.51815 -2.4659603,-11.78415 -5.8789003,-15.51563 a 3.0003,3.0003 0 0 0 -0.0117,-0.0137 c -3.438439,-3.71351 -8.497249,-5.88637 -14.781249,-6.85937 a 3.0003,3.0003 0 0 0 -0.0234,-0.004 c -2.21139,-0.32461 -4.60123,-0.50251 -7.17187,-0.53711 -0.64257,-0.009 -1.29553,-0.009 -1.96094,0 z m 553.06836,17.87695 c -2.52919,-0.004 -5.18852,0.11921 -7.98242,0.36719 a 3.0003,3.0003 0 0 0 -0.002,0 l -47.96093,4.26953 a 3.0003,3.0003 0 0 0 -2.69922,2.53711 L 416.23302,61.780285 c -1.91656,12.582075 -6.98703,22.067015 -15.2832,28.986335 -8.04922,6.70732 -19.00721,10.80883 -33.07813,12.05469 a 3.0003,3.0003 0 0 0 -0.002,0 c -14.76163,1.31866 -25.15555,-1.24937 -31.76367,-7.08594 a 3.0003,3.0003 0 0 0 -0.002,-0.002 c -7.12599,-6.28166 -9.80758,-15.52861 -7.74804,-29.005865 a 3.0003,3.0003 0 0 0 0,-0.004 l 32.42978,-213.919775 v -0.002 c 2.01112,-13.20983 -0.29795,-23.6711 -7.53321,-30.20112 -7.2356,-6.53034 -18.55278,-8.68816 -33.45508,-7.36524 l -48.07617,4.27149 a 3.0003,3.0003 0 0 0 -2.70117,2.53711 L 227.67247,94.84865 v 0.002 c -2.5536,16.75538 -1.3562,31.14403 3.76563,42.98829 4.96728,11.4963 13.81682,20.65832 26.19726,27.33984 a 3.0003,3.0003 0 0 0 0.004,0.002 c 13.15317,7.07951 27.68192,11.98088 43.5,14.75198 a 3.0003,3.0003 0 0 0 0.002,0 c 15.90864,2.7734 33.21517,3.3027 51.83985,1.6582 a 3.0003,3.0003 0 0 0 0.004,0 c 18.7019,-1.6828 36.73475,-5.3941 54.07813,-11.13674 h 0.002 c 17.2371,-5.69523 33.82664,-13.46493 49.75977,-23.21094 a 3.0003,3.0003 0 0 0 0.42578,-0.2168 c 15.57063,-9.63526 28.00304,-21.15118 37.11133,-34.58008 a 3.0003,3.0003 0 0 0 0.22265,-0.39062 C 503.50414,98.79524 509.24844,83.5832 511.81534,66.649525 L 546.73693,-163.747 v -0.002 c 1.82211,-11.97122 0.15933,-21.63512 -5.61719,-28.25586 -5.77682,-6.6211 -15.16598,-9.65654 -27.38867,-9.67774 z m -325.91992,20.35156 c -1.30009,0.0159 -2.60907,0.0806 -3.92579,0.19727 -28.07531,2.48667 -48.86324,27.37577 -46.37695,55.44726 2.4867,28.075285 27.37577,48.865235 55.44727,46.378905 28.07535,-2.48667 48.86523,-27.377725 46.3789,-55.449215 -2.33125,-26.32067 -24.33411,-46.242 -50.22656,-46.57422 -0.43121,-0.006 -0.86351,-0.005 -1.29687,0 z m -76.32227,61.33788 a 3.0003,3.0003 0 0 0 -0.24609,0.0117 l -212.93946,18.93555 a 3.0003,3.0003 0 0 0 -2.70117,2.537115 l -55.4082,365.367205 a 3.0003,3.0003 0 0 0 3.23242,3.4394 l 175.22656,-15.58 -0.87695,-1.752 a 3.0003,3.0003 0 0 0 2.95312,1.6445 c 12.61422,-1.1396 22.82566,-5.18 30.10938,-12.3808 7.43029,-7.3097 12.01719,-17.8872 14.04687,-31.3516 v 0 l 5.10352,-33.7148 a 3.0003,3.0003 0 0 0 -3.23047,-3.43558 l -109.75781,9.75198 -7.80469,0.6855 1.16992,-7.7578 8.61719,-56.91601 0.73828,-4.8164 4.80469,-0.4336 67.38086,-6.00781 h 0.006 c 12.59395,-1.10283 22.77616,-5.23716 30.08203,-12.50195 7.41853,-7.37754 12.08535,-18.02453 14.1543,-31.609385 a 3.0003,3.0003 0 0 0 0,-0.004 l 5.14062,-34.01563 a 3.0003,3.0003 0 0 0 -3.23242,-3.43555 l -98.64453,8.76758 -7.80469,0.68555 1.16992,-7.75586 8.35352,-55.14062 0.738279,-4.81641 4.80078,-0.43164 78.501951,-6.99219 a 3.0003,3.0003 0 0 0 0.004,-0.002 c 12.61421,-1.13961 22.82562,-5.18006 30.109377,-12.38086 7.434783,-7.31408 12.016583,-17.92699 14.083983,-31.42383 a 3.0003,3.0003 0 0 0 0,-0.006 l 5.10352,-33.712895 a 3.0003,3.0003 0 0 0 -2.98438,-3.44922 z m 112.48438,44.107425 a 3.0003,3.0003 0 0 0 -0.25196,0.0117 l -43.50195,3.85547 a 3.0003,3.0003 0 0 0 -0.004,0 c -16.8582,1.51143 -30.21777,6.27013 -39.79101,14.55078 a 3.0003,3.0003 0 0 0 -0.002,0.002 c -9.37878,8.1256 -15.1727,19.85461 -17.40625,34.61914 v 0.006 L 84.01219,231.24916 a 3.0003,3.0003 0 0 0 3.23242,3.4434 l 43.61523,-3.8926 a 3.0003,3.0003 0 0 0 0.002,0 c 16.52553,-1.485 29.70934,-6.106 39.21289,-14.125 a 3.0003,3.0003 0 0 0 0.51172,-0.3594 c 9.33225,-8.1202 15.1283,-19.7758 17.36132,-34.5449 l 39.00391,-254.203105 a 3.0003,3.0003 0 0 0 -2.97851,-3.45508 z" fill="#0091d4" />
    <path d="m 462.90466,-291.14193 c -9.45645,-0.15053 -17.29536,4.95055 -27.48633,13.45118 -10.91104,9.10506 -25.18588,21.6037 -36.04492,31.36914 -7.85276,7.08254 -13.08957,12.29833 -16.29102,18.25586 -3.20148,5.95752 -4.5961,12.88621 -4.375,24.01758 a 3.0003,3.0003 0 0 1 0,0.008 c 0.053,3.01833 0.23255,6.41089 0.43555,10.01953 32.35132,-14.40961 74.63171,-30.0133 107.39844,-44.7168 12.67627,-5.68671 15.81622,-14.11667 13.97461,-23.10742 -1.84158,-8.99076 -9.55153,-18.56206 -20.18164,-24.10742 a 3.0003,3.0003 0 0 0 -0.002,0 c -6.87125,-3.59155 -12.47394,-5.11058 -17.42773,-5.18946 z m -500.388664,77.74415 c -2.34263,-0.0315 -4.89959,0.0666 -7.66602,0.30468 h -0.002 l -297.056596,26.43751 -6.30078,41.62304 a 3.0003,3.0003 0 0 1 0,0.006 c -2.05302,13.43467 -0.51753,22.1852 3.27343,26.64453 a 3.0003,3.0003 0 0 1 0.20899,0.20703 c 3.86074,4.21989 12.07689,6.40651 25.30078,5.23438 l 64.25,-5.70703 13.375,-1.20899 a 3.0003,3.0003 0 0 1 3.23633,3.4336 l -2.00391,13.30469 a 3.0003,3.0003 0 0 1 0,0.004 l -48.86328,322.24602 46.38867,-4.123 c 18.51833,-1.6637 32.47844,-6.8068 42.17774,-15.2266 9.48312,-8.24 15.44491,-20.0538 17.86133,-35.94334 a 3.0003,3.0003 0 0 1 2.96679,-2.54883 h -2.46679 l 42.39843,-279.74413 1.24805,-8.23633 a 3.0003,3.0003 0 0 1 2.70117,-2.53906 l 73.128916,-6.50196 c 14.27443,-1.28103 24.95035,-5.57389 32.39844,-12.70703 7.53146,-7.21623 12.51878,-17.93019 14.71874,-32.52343 a 3.0003,3.0003 0 0 1 0.002,-0.0117 c 0.87718,-5.66516 1.08337,-10.68641 0.69531,-14.95508 a 3.0003,3.0003 0 0 1 -0.002,-0.0117 c -0.49078,-5.64397 -2.07021,-9.52033 -4.32227,-11.98633 -2.22951,-2.40376 -5.85761,-4.15685 -11.27734,-4.99805 -1.90583,-0.27925 -4.03034,-0.44117 -6.36914,-0.47265 z m 551.177724,17.87695 c -2.32596,-0.004 -4.80722,0.10802 -7.4414,0.3418 v 0.002 l -45.61329,4.06055 -38.5,253.960926 a 3.0003,3.0003 0 0 0 0,0.002 C 420.04918,76.56889 414.23325,87.64179 404.76599,95.53785 a 3.0003,3.0003 0 0 0 -0.002,0.002 c -9.18474,7.65402 -21.43245,12.09551 -36.38671,13.41993 l -0.002,0.002 c -15.69989,1.4021 -27.98271,-1.24902 -36.26562,-8.56445 0,0 -0.002,0 -0.002,0 -8.82126,-7.7776 -11.95884,-19.69491 -9.71093,-34.410164 v -0.002 l 32.4298,-213.920056 a 3.0003,3.0003 0 0 0 0,-0.002 c 1.84392,-12.11222 -0.25182,-19.99977 -5.62109,-24.8457 -5.36927,-4.84593 -14.85737,-7.08896 -28.90625,-5.8418 l -45.72851,4.0625 -40.99415,270.47656 a 3.0003,3.0003 0 0 0 0,0.002 c -2.43488,15.97433 -1.2117,29.17512 3.3418,39.70508 a 3.0003,3.0003 0 0 0 0,0.002 c 4.40599,10.19775 12.10887,18.27075 23.53906,24.43945 12.54618,6.75237 26.44002,11.45172 41.6875,14.12305 h 0.002 c 15.30814,2.66843 32.0885,3.19703 50.27343,1.59183 0,0 0.002,0 0.002,0 18.26044,-1.64326 35.8307,-5.26409 52.72851,-10.85941 a 3.0003,3.0003 0 0 0 0.002,0 c 16.93039,-5.59373 33.23472,-13.24054 48.92187,-22.87695 a 3.0003,3.0003 0 0 1 0.35547,-0.1875 c 14.65417,-9.1273 26.20962,-19.86647 34.69727,-32.26367 a 3.0003,3.0003 0 0 1 0.20507,-0.35157 c 8.54245,-12.57537 14.05095,-27.01739 16.52344,-43.328124 l 34.92176,-230.398486 a 3.0003,3.0003 0 0 0 0,-0.002 c 1.67104,-10.97668 0.0452,-18.53449 -4.20703,-23.4082 -4.25228,-4.87371 -11.63245,-7.60354 -22.87696,-7.62305 z m -325.83594,20.34961 c -1.14935,0.014 -2.30713,0.0727 -3.4707,0.17578 -24.83803,2.19994 -43.12994,24.09952 -40.92969,48.94141 2.19995,24.83799 24.09952,43.131916 48.94141,40.931636 24.83803,-2.19994 43.13193,-24.101466 40.93164,-48.943356 -2.06245,-23.28562 -21.46158,-40.81015 -44.32617,-41.10352 -0.38139,-0.005 -0.76335,-0.007 -1.14649,-0.002 z m -79.91601,61.66602 -206.789054,18.388666 -54.480476,359.261714 173.457036,-15.4219 a 3.0003,3.0003 0 0 1 0.63476,0.01 c 11.34418,-1.1213 19.84097,-4.6879 25.83008,-10.6093 a 3.0003,3.0003 0 0 1 0.006,0 c 6.24854,-6.145 10.42541,-15.3659 12.32617,-27.9766 l 4.53125,-29.9395 -105.95507,9.4141 a 3.0003,3.0003 0 0 0 -0.002,0 l -11.60351,1.0195 a 3.0003,3.0003 0 0 1 -3.22852,-3.4355 l 1.73828,-11.5274 8.61719,-56.91987 a 3.0003,3.0003 0 0 1 0,-0.006 l 1.0957,-7.14258 a 3.0003,3.0003 0 0 1 2.69727,-2.5332 l 7.14453,-0.64258 a 3.0003,3.0003 0 0 0 0.002,0 l 67.38867,-6.00976 a 3.0003,3.0003 0 0 1 0.006,-0.002 c 11.59268,-1.01435 20.22869,-4.66557 26.37696,-10.77929 6.26332,-6.22872 10.51773,-15.53726 12.45508,-28.257814 l 4.57031,-30.23633 -94.84375,8.42969 a 3.0003,3.0003 0 0 1 -0.004,0 l -11.60351,1.02148 a 3.0003,3.0003 0 0 1 -3.22852,-3.43555 l 1.73828,-11.52734 a 3.0003,3.0003 0 0 0 0,-0.002 l 8.35352,-55.14454 a 3.0003,3.0003 0 0 1 0,-0.006 l 1.0957,-7.14257 a 3.0003,3.0003 0 0 1 2.69727,-2.53321 l 7.14257,-0.64257 a 3.0003,3.0003 0 0 0 0.002,0 l 78.49804,-6.99219 c 11.64968,-1.05246 20.33786,-4.64697 26.4336,-10.67383 a 3.0003,3.0003 0 0 1 0.006,-0.006 c 6.243427,-6.13996 10.424474,-15.40097 12.363274,-28.05273 z m 112.4707,44.107406 -39.6914,3.51758 0.004,-0.002 c -16.02251,1.4365 -28.0607,5.89879 -36.40234,13.11328 -8.15679,7.0669 -13.32648,17.25639 -15.40235,30.98633 a 3.0003,3.0003 0 0 1 0,0.008 l -38.423814,250.312484 39.800774,-3.5508 c 15.98528,-1.4364 28.02415,-5.8996 36.32422,-13.1093 a 3.0003,3.0003 0 0 1 0.43554,-0.3145 c 7.87582,-7.0536 12.89365,-17.0461 14.93164,-30.5254 a 3.0003,3.0003 0 0 1 0,-0.01 z" fill="#fefefe" />
  </g>
</svg>
